<svg width="67" height="67" viewBox="0 0 67 67" fill="none" xmlns="http://www.w3.org/2000/svg">
<circle cx="33.5" cy="33.5" r="33.5" fill="#E1E7F1"/>
<path fill-rule="evenodd" clip-rule="evenodd" d="M34.7731 31.0677C30.9039 27.3834 25.6624 25.1226 19.8334 25.1226L19.4142 43.544C25.2432 43.544 30.4848 45.8048 34.354 49.4891C38.3904 45.8216 43.7352 43.544 49.5642 43.544L49.9834 25.1226C44.1544 25.1226 38.8099 27.3834 34.7731 31.0677ZM34.9084 25.1226C37.6889 25.1226 39.9844 22.8786 40.0477 20.0986C40.111 17.3186 37.9175 15.0746 35.137 15.0746C32.3565 15.0746 30.061 17.3186 29.9977 20.0986C29.9344 22.8786 32.1279 25.1226 34.9084 25.1226Z" fill="black"/>
</svg>

