<svg width="50" height="50" viewBox="0 0 50 50" fill="none" xmlns="http://www.w3.org/2000/svg">
<path d="M50 25C50 38.8071 38.8071 50 25 50C11.1929 50 0 38.8071 0 25C0 11.1929 11.1929 0 25 0C38.8071 0 50 11.1929 50 25Z" fill="#FBC446"/>
<path fill-rule="evenodd" clip-rule="evenodd" d="M25 22.871C21.3289 19.4453 16.4133 17.3431 11 17.3431V34.472C16.4133 34.472 21.3289 36.5742 25 40C28.6711 36.5898 33.5867 34.472 39 34.472V17.3431C33.5867 17.3431 28.6711 19.4453 25 22.871ZM25 17.3431C27.5822 17.3431 29.6667 15.2564 29.6667 12.6715C29.6667 10.0866 27.5822 8 25 8C22.4178 8 20.3333 10.0866 20.3333 12.6715C20.3333 15.2564 22.4178 17.3431 25 17.3431Z" fill="#162E51"/>
</svg>
